<?xml version="1.0" standalone="no"?>
<!DOCTYPE svg PUBLIC "-//W3C//DTD SVG 20010904//EN"
 "http://www.w3.org/TR/2001/REC-SVG-20010904/DTD/svg10.dtd">
<svg version="1.0" xmlns="http://www.w3.org/2000/svg"
 width="424.000000pt" height="424.000000pt" viewBox="0 0 424.000000 424.000000"
 preserveAspectRatio="xMidYMid meet">
<metadata>
Created by potrace 1.14, written by Peter Selinger 2001-2017
</metadata>
<g transform="translate(0.000000,424.000000) scale(0.100000,-0.100000)"
fill="#000000" stroke="none">
<path d="M2275 3080 c-285 -39 -487 -164 -586 -364 -49 -99 -67 -185 -64 -293
12 -333 293 -595 621 -579 135 7 206 30 314 101 72 48 119 95 169 170 35 52
86 175 73 175 -7 0 -52 40 -197 178 -33 31 -76 72 -96 89 l-35 33 -52 -20
c-29 -11 -56 -20 -62 -20 -8 0 10 66 25 90 3 5 20 -4 37 -20 48 -44 48 -26 0
19 -31 29 -56 43 -98 52 -31 7 -63 19 -70 27 -8 7 -14 9 -14 4 0 -6 -31 -18
-70 -27 -59 -15 -76 -24 -122 -68 -28 -29 -53 -54 -53 -57 -1 -3 -7 -31 -14
-62 -7 -32 -17 -58 -23 -58 -7 0 -7 -4 0 -12 5 -7 13 -29 16 -48 15 -86 19
-101 35 -113 9 -6 33 -31 53 -54 20 -23 39 -39 41 -36 3 2 23 -1 46 -8 46 -14
54 -38 19 -61 -11 -8 -22 -25 -24 -39 -1 -13 -3 -27 -3 -31 -2 -11 -102 32
-146 62 -203 140 -235 441 -66 617 89 93 249 169 416 199 86 15 171 26 254 32
106 8 749 9 848 1 85 -6 67 5 -42 26 -49 9 -99 19 -110 21 -64 14 -314 55
-367 60 -35 3 -85 10 -112 14 -66 10 -465 10 -541 0z m-50 -407 c-4 -10 -11
-33 -17 -50 -5 -18 -11 -33 -14 -33 -7 0 -63 64 -64 72 0 8 54 26 84 27 13 1
16 -3 11 -16z m88 6 c20 -5 37 -12 37 -15 0 -3 -15 -21 -34 -40 l-34 -35 -7
33 c-3 18 -9 41 -11 51 -6 20 -2 20 49 6z m-198 -61 c16 -71 16 -71 -2 -63
-10 4 -33 12 -52 17 l-33 10 33 34 c18 19 36 34 40 34 3 0 10 -15 14 -32z
m378 -132 c6 -36 5 -38 -16 -32 -12 4 -37 9 -54 13 -18 3 -33 9 -33 13 0 5 19
24 42 44 48 39 49 38 61 -38z m-420 -7 c-8 -6 -93 -29 -93 -25 0 1 7 24 16 50
l16 48 34 -33 c19 -18 31 -36 27 -40z m610 -113 c37 -36 67 -68 67 -71 0 -3
-33 -5 -73 -5 -73 0 -73 0 -89 -33 -29 -60 -113 -142 -181 -175 -77 -38 -87
-39 -87 -8 0 24 -19 51 -42 58 -26 9 3 37 49 46 39 9 60 22 103 66 30 30 56
61 56 68 4 35 14 71 27 97 8 16 11 33 6 38 -4 4 -11 28 -15 53 l-6 45 58 -57
c33 -31 89 -86 127 -122z m-610 38 c31 -5 30 -8 -18 -51 l-44 -42 -10 32 c-5
18 -12 44 -15 59 -6 26 -6 26 30 16 20 -5 46 -11 57 -14z m413 -15 c-3 -17 -6
-38 -6 -45 0 -24 -25 -15 -59 20 l-33 34 43 10 c24 5 48 10 53 11 5 1 6 -13 2
-30z m-366 -72 c0 -2 -7 -25 -16 -51 l-16 -47 -32 33 -31 33 35 17 c32 16 60
23 60 15z m310 -19 l24 -9 -31 -30 c-18 -16 -34 -29 -36 -29 -5 0 -37 75 -37
85 0 6 42 -3 80 -17z m-108 -50 c20 -24 35 -44 34 -46 -2 -1 -13 -5 -25 -7
-13 -2 -31 -7 -42 -10 -18 -6 -19 -2 -18 49 1 31 5 56 8 56 3 0 23 -19 43 -42z
m-132 -17 l0 -49 -34 10 -35 11 32 38 c18 21 33 39 35 39 1 0 2 -22 2 -49z"/>
<path d="M478 2859 c-10 -5 -18 -17 -18 -25 0 -9 30 -71 66 -137 314 -578 729
-973 1177 -1122 168 -56 391 -82 542 -64 33 4 78 10 101 13 69 8 205 43 291
75 448 165 805 537 958 996 25 78 56 195 50 195 -1 0 -17 -30 -35 -67 -18 -38
-53 -102 -78 -143 -299 -501 -652 -784 -1093 -876 -122 -26 -351 -23 -484 5
-269 57 -505 173 -745 366 -63 51 -263 258 -322 335 -107 138 -209 302 -265
423 -17 36 -19 37 -73 37 -30 0 -63 -5 -72 -11z"/>
<path d="M3888 2714 c-9 -8 32 -67 75 -106 55 -50 130 -46 143 8 7 28 -14 57
-58 80 -31 16 -149 29 -160 18z"/>
<path d="M248 2637 c-62 -15 -84 -28 -103 -60 -11 -18 -18 -34 -16 -37 2 -3 7
-13 12 -22 13 -25 62 -32 98 -14 49 26 117 109 109 133 -4 10 -58 10 -100 0z"/>
<path d="M3680 2340 c0 -4 17 -34 39 -67 30 -46 48 -64 80 -77 36 -14 47 -14
69 -4 52 25 33 96 -34 124 -39 16 -154 34 -154 24z"/>
<path d="M500 2280 c-91 -31 -129 -100 -75 -136 24 -15 29 -15 68 0 33 12 50
28 74 69 49 80 50 87 17 87 -16 -1 -54 -9 -84 -20z"/>
<path d="M3426 1988 c3 -13 17 -45 31 -71 48 -96 163 -121 163 -35 0 40 -45
83 -113 107 -76 28 -90 27 -81 -1z"/>
<path d="M824 1971 c-69 -25 -89 -37 -113 -67 -63 -80 28 -144 102 -71 32 32
82 143 68 151 -3 3 -29 -4 -57 -13z"/>
<path d="M3122 1689 c10 -124 74 -194 133 -147 20 16 25 27 21 50 -8 51 -39
86 -130 144 l-29 18 5 -65z"/>
<path d="M1140 1686 c-55 -29 -98 -71 -106 -103 -8 -30 20 -73 47 -73 60 0
108 61 124 158 8 50 1 52 -65 18z"/>
<path d="M2748 1505 c-1 -19 -2 -50 -3 -67 -6 -98 64 -165 121 -117 16 13 18
57 4 93 -11 29 -75 102 -102 117 -16 8 -18 5 -20 -26z"/>
<path d="M1500 1465 c-29 -28 -58 -63 -65 -79 -15 -34 -6 -85 17 -100 23 -14
66 2 90 35 22 30 33 119 20 164 l-8 29 -54 -49z"/>
<path d="M2332 1381 c-7 -21 -12 -62 -12 -90 0 -45 4 -57 29 -82 33 -32 47
-35 74 -15 28 22 32 76 9 123 -23 44 -69 103 -81 103 -4 0 -13 -17 -19 -39z"/>
<path d="M1901 1352 c-36 -72 -43 -118 -23 -154 18 -30 38 -39 69 -27 49 18
58 90 23 178 -14 33 -28 61 -32 61 -4 0 -21 -26 -37 -58z"/>
</g>
</svg>
